<?xml version="1.0" standalone="no"?>
<!DOCTYPE svg PUBLIC "-//W3C//DTD SVG 20010904//EN"
 "http://www.w3.org/TR/2001/REC-SVG-20010904/DTD/svg10.dtd">
<svg version="1.0" xmlns="http://www.w3.org/2000/svg"
 width="3909.000000pt" height="2197.000000pt" viewBox="0 0 3909.000000 2197.000000"
 preserveAspectRatio="xMidYMid meet">

<g transform="translate(0.000000,2197.000000) scale(0.100000,-0.100000)"
fill="#000000" stroke="none">
<path d="M20700 19645 c-498 -73 -1465 -214 -2150 -314 -1881 -273 -4525 -658
-5250 -765 -355 -52 -748 -108 -875 -126 -2252 -303 -4407 -1285 -6295 -2868
-568 -477 -1161 -1064 -1681 -1662 -1129 -1301 -1878 -2702 -2195 -4110 -198
-879 -223 -1741 -73 -2510 113 -575 336 -1115 613 -1484 523 -694 1489 -1155
2787 -1330 493 -67 737 -81 1379 -81 804 0 1124 26 2185 179 248 36 857 124
1355 196 498 72 1168 169 1490 215 322 46 1242 179 2045 295 1637 236 3065
442 4270 616 446 64 811 117 811 118 3 2 3024 8694 3024 8698 0 5 -94 -9
-1360 -192 -421 -61 -1120 -162 -1555 -225 -434 -63 -1337 -193 -2005 -290
-3022 -437 -4389 -635 -4439 -641 -50 -7 -60 -13 -147 -93 -155 -143 -3683
-3506 -3681 -3508 2 -2 436 61 1687 242 1092 159 3970 576 4275 621 209 30
668 97 1020 148 352 51 642 91 644 90 2 -2 -143 -434 -324 -959 l-328 -955
-31 -5 c-17 -3 -296 -44 -621 -90 -643 -92 -4235 -607 -4905 -704 -526 -76
-637 -85 -1005 -85 -705 0 -1240 101 -1690 319 -498 243 -794 610 -896 1111
-27 137 -37 459 -19 628 64 595 348 1343 738 1941 207 318 408 562 716 871
431 431 871 764 1447 1095 649 373 1494 714 2166 873 59 15 578 93 1153 176
1324 189 6254 896 6910 990 272 39 498 75 501 78 3 4 268 768 589 1697 320
930 602 1745 626 1813 42 119 43 122 21 121 -12 -1 -429 -61 -927 -134z"/>
<path d="M25435 18245 c-1270 -184 -2315 -334 -2321 -335 -10 0 -551 -1517
-543 -1524 2 -2 262 30 578 70 316 41 575 73 577 71 5 -5 -3807 -11440 -3817
-11451 -4 -5 -318 -56 -696 -113 -378 -57 -690 -107 -694 -111 -3 -4 -198
-556 -432 -1227 -234 -671 -428 -1227 -432 -1236 -5 -14 2 -15 82 -3 267 40
13719 2085 13725 2087 10 3 3647 4001 3643 4005 -2 2 -2576 -407 -5720 -908
-3144 -501 -5719 -910 -5721 -908 -3 4 4081 11795 4121 11901 6 13 2 17 -16
16 -13 -1 -1063 -151 -2334 -334z"/>
</g>
</svg>
